<?xml version="1.0" standalone="no"?>
<!DOCTYPE svg PUBLIC "-//W3C//DTD SVG 20010904//EN"
 "http://www.w3.org/TR/2001/REC-SVG-20010904/DTD/svg10.dtd">
<svg version="1.0" xmlns="http://www.w3.org/2000/svg"
 width="2000.000000pt" height="1500.000000pt" viewBox="0 0 2000.000000 1500.000000"
 preserveAspectRatio="xMidYMid meet">

<g transform="translate(0.000000,1500.000000) scale(0.100000,-0.100000)"
fill="#000000" stroke="none">
<path d="M9715 11644 c-559 -45 -1083 -188 -1560 -426 -313 -157 -547 -311
-849 -560 -21 -17 -20 -18 27 -18 44 0 55 5 120 59 592 483 1303 779 2107 878
204 24 676 24 880 -1 487 -59 887 -174 1316 -376 260 -123 599 -339 811 -517
48 -40 57 -44 100 -41 l47 3 -132 104 c-465 368 -987 628 -1547 771 -353 90
-589 120 -975 124 -162 2 -317 2 -345 0z"/>
<path d="M5850 8175 l0 -2225 4150 0 4150 0 0 2225 0 2225 -4150 0 -4150 0 0
-2225z m2104 1695 c138 -27 313 -84 438 -143 l96 -45 6 -73 c7 -77 46 -699 46
-724 0 -11 -12 -15 -43 -15 l-43 0 -154 276 c-152 275 -153 276 -219 325 -153
114 -334 179 -493 179 -181 -1 -325 -73 -416 -210 -107 -159 -115 -391 -21
-557 71 -124 219 -226 619 -427 403 -202 522 -278 655 -418 136 -143 196 -275
218 -481 28 -277 -53 -528 -233 -721 -225 -240 -545 -377 -915 -393 -340 -14
-677 52 -985 193 -58 26 -107 49 -109 50 -4 3 -50 734 -51 807 l0 47 43 0 43
0 155 -292 c142 -269 158 -294 206 -332 110 -87 254 -158 399 -197 63 -17 108
-21 219 -21 221 0 353 45 480 163 104 97 145 205 145 377 0 163 -40 268 -139
368 -98 100 -219 170 -601 349 -305 142 -473 250 -620 395 -91 91 -138 161
-171 256 -52 148 -64 337 -29 481 88 370 456 698 890 794 120 27 426 21 584
-11z m2434 -46 c7 -14 249 -575 538 -1247 290 -672 530 -1225 533 -1229 4 -4
249 557 545 1247 l539 1255 543 0 544 0 0 -38 0 -39 -212 -85 -213 -85 -3 -69
c-3 -74 76 -2732 82 -2749 2 -5 85 -55 185 -110 l181 -100 0 -42 0 -43 -695 0
-695 0 0 39 0 40 200 102 200 103 0 50 c0 137 -50 2389 -53 2392 -2 2 -266
-612 -587 -1364 -321 -752 -588 -1373 -593 -1379 -13 -18 -252 -18 -264 -1 -4
7 -272 624 -594 1371 l-587 1359 -6 -133 c-3 -74 -17 -568 -31 -1099 -13 -531
-27 -1017 -30 -1080 l-5 -115 217 -102 218 -101 3 -41 3 -41 -595 0 -596 0 0
40 0 40 209 105 209 104 6 63 c12 134 106 2723 98 2726 -4 1 -101 47 -217 101
l-210 99 -3 41 -3 41 564 0 564 0 11 -26z"/>
<path d="M7660 5285 l0 -415 55 0 55 0 6 41 7 40 31 -30 c17 -16 48 -37 68
-45 44 -19 145 -21 200 -4 57 17 131 87 159 150 32 74 33 192 1 263 -48 106
-138 165 -254 165 -80 0 -108 -10 -165 -56 l-43 -35 0 170 0 171 -60 0 -60 0
0 -415z m367 54 c38 -14 83 -57 99 -96 17 -38 18 -130 3 -170 -37 -98 -152
-140 -249 -90 -128 64 -126 282 2 346 47 23 101 27 145 10z"/>
<path d="M11430 5285 l0 -415 60 0 60 0 0 415 0 415 -60 0 -60 0 0 -415z"/>
<path d="M5860 5669 c0 -6 47 -186 105 -400 58 -214 105 -391 105 -394 0 -3
33 -5 73 -3 l72 3 90 313 c84 293 90 310 101 280 6 -18 46 -160 89 -315 l78
-283 72 0 72 0 106 389 c59 214 107 397 107 406 0 13 -10 15 -61 13 l-62 -3
-77 -320 c-42 -176 -79 -326 -81 -333 -2 -8 -42 127 -88 300 -46 172 -87 323
-92 336 -8 20 -15 22 -72 22 l-64 0 -87 -317 c-48 -175 -90 -326 -94 -336 -5
-12 -34 93 -82 295 -40 172 -77 323 -82 336 -7 19 -14 22 -68 22 -38 0 -60 -4
-60 -11z"/>
<path d="M8700 5275 l0 -407 198 4 c174 4 204 7 254 27 80 31 148 96 184 173
24 55 29 78 32 174 8 222 -64 344 -236 406 -47 17 -90 22 -244 26 l-188 5 0
-408z m391 280 c24 -9 61 -32 81 -52 57 -56 73 -108 73 -238 0 -98 -3 -115
-25 -159 -50 -97 -138 -136 -307 -136 l-93 0 0 307 0 306 114 -6 c62 -4 133
-14 157 -22z"/>
<path d="M7135 5432 c-105 -49 -156 -130 -163 -258 -5 -99 13 -163 64 -222 51
-61 125 -93 210 -93 114 0 174 29 235 114 42 59 39 67 -27 67 -48 0 -59 -4
-76 -25 -66 -84 -220 -69 -269 27 -10 20 -19 49 -19 63 l0 25 220 0 220 0 0
58 c0 95 -60 195 -144 239 -49 26 -200 29 -251 5z m211 -103 c31 -19 64 -72
64 -103 0 -14 -20 -16 -161 -16 l-161 0 7 28 c25 104 153 150 251 91z"/>
<path d="M9655 5431 c-104 -47 -156 -129 -163 -257 -8 -140 43 -235 152 -289
59 -29 151 -35 223 -16 63 17 163 115 163 161 0 6 -24 10 -56 10 -48 0 -59 -4
-76 -25 -66 -84 -220 -69 -269 27 -10 20 -19 49 -19 63 l0 25 220 0 220 0 0
58 c0 108 -72 214 -169 248 -55 20 -178 17 -226 -5z m211 -102 c31 -19 64 -72
64 -103 0 -14 -20 -16 -161 -16 l-161 0 7 28 c25 104 153 150 251 91z"/>
<path d="M10895 5425 c-59 -29 -73 -39 -107 -85 -83 -111 -72 -305 23 -399
112 -112 323 -109 419 7 16 20 34 48 39 64 l10 28 -59 0 c-49 0 -61 -4 -74
-21 -28 -41 -68 -59 -127 -59 -86 0 -150 52 -165 133 l-6 37 227 0 228 0 -6
64 c-11 112 -66 194 -162 237 -62 28 -176 26 -240 -6z m205 -90 c36 -18 57
-45 68 -87 l10 -38 -164 0 -165 0 6 23 c12 38 43 83 68 96 56 30 124 32 177 6z"/>
<path d="M11867 5436 c-128 -46 -202 -188 -177 -340 24 -146 130 -235 280
-236 173 0 290 119 290 295 0 174 -117 295 -285 294 -38 0 -87 -6 -108 -13z
m183 -107 c97 -55 119 -223 40 -313 -39 -44 -79 -60 -136 -53 -89 10 -144 83
-144 192 1 93 41 162 110 188 34 12 94 6 130 -14z"/>
<path d="M12615 5431 c-22 -10 -51 -30 -64 -44 -29 -32 -41 -27 -41 19 l0 34
-55 0 -55 0 0 -415 0 -415 60 0 60 0 0 169 0 169 32 -30 c46 -43 91 -58 172
-58 159 0 264 104 274 271 8 134 -48 242 -150 293 -65 33 -170 36 -233 7z
m162 -100 c102 -47 136 -212 61 -306 -42 -54 -139 -79 -205 -54 -118 44 -151
228 -60 328 48 52 130 65 204 32z"/>
<path d="M13285 5431 c-104 -47 -156 -129 -163 -257 -8 -140 43 -235 152 -289
59 -29 151 -35 223 -16 63 17 163 115 163 161 0 6 -23 10 -55 10 -50 0 -57 -3
-88 -37 -31 -33 -40 -37 -95 -41 -50 -4 -67 0 -102 19 -45 25 -80 80 -80 124
l0 25 221 0 221 0 -4 68 c-6 108 -61 192 -152 233 -56 25 -185 26 -241 0z
m211 -102 c31 -19 64 -72 64 -103 0 -14 -20 -16 -161 -16 l-161 0 7 28 c25
104 153 150 251 91z"/>
<path d="M14032 5429 c-23 -12 -55 -37 -71 -56 l-28 -34 -7 50 -7 51 -54 0
-55 0 0 -285 0 -285 59 0 59 0 4 173 c3 160 5 175 26 210 29 46 68 67 138 74
l54 6 0 58 0 59 -37 0 c-21 0 -57 -10 -81 -21z"/>
<path d="M10115 5419 c4 -12 51 -140 105 -283 l98 -261 74 -3 73 -3 106 286
106 285 -62 0 -63 0 -78 -224 c-43 -124 -81 -223 -83 -220 -3 3 -40 103 -81
222 l-76 217 -63 3 c-61 3 -62 2 -56 -19z"/>
<path d="M7306 4352 c12 -9 64 -51 115 -93 495 -400 1134 -696 1779 -823 292
-57 439 -70 800 -70 293 0 356 3 505 23 802 108 1470 391 2102 891 l107 85
-48 3 c-44 3 -52 -1 -99 -41 -430 -362 -1024 -659 -1607 -801 -344 -84 -579
-110 -965 -110 -374 0 -567 22 -905 99 -579 133 -1144 404 -1603 769 -101 81
-110 86 -155 86 -46 0 -47 -1 -26 -18z"/>
</g>
</svg>
